<?xml version="1.0" encoding="UTF-8" standalone="no"?>
<svg
   xmlns:dc="http://purl.org/dc/elements/1.1/"
   xmlns:cc="http://creativecommons.org/ns#"
   xmlns:rdf="http://www.w3.org/1999/02/22-rdf-syntax-ns#"
   xmlns:svg="http://www.w3.org/2000/svg"
   xmlns="http://www.w3.org/2000/svg"
   xmlns:sodipodi="http://sodipodi.sourceforge.net/DTD/sodipodi-0.dtd"
   xmlns:inkscape="http://www.inkscape.org/namespaces/inkscape"
   width="11.49302mm"
   height="11.209466mm"
   viewBox="0 0 11.49302 11.209466"
   version="1.1"
   id="svg1731"
   inkscape:version="1.0.1 (3bc2e813f5, 2020-09-07)"
   sodipodi:docname="git-mark.svg">
  <defs
     id="defs1725" />
  <sodipodi:namedview
     id="base"
     pagecolor="#ffffff"
     bordercolor="#666666"
     borderopacity="1.0"
     inkscape:pageopacity="0.0"
     inkscape:pageshadow="2"
     inkscape:zoom="0.35"
     inkscape:cx="10.290759"
     inkscape:cy="112.6118"
     inkscape:document-units="mm"
     inkscape:current-layer="layer1"
     inkscape:document-rotation="0"
     showgrid="false"
     inkscape:window-width="1566"
     inkscape:window-height="1033"
     inkscape:window-x="192"
     inkscape:window-y="0"
     inkscape:window-maximized="0" />
  <metadata
     id="metadata1728">
    <rdf:RDF>
      <cc:Work
         rdf:about="">
        <dc:format>image/svg+xml</dc:format>
        <dc:type
           rdf:resource="http://purl.org/dc/dcmitype/StillImage" />
        <dc:title></dc:title>
      </cc:Work>
    </rdf:RDF>
  </metadata>
  <g
     inkscape:label="Layer 1"
     inkscape:groupmode="layer"
     id="layer1"
     transform="translate(-103.11057,-118.37146)">
    <path
       id="path24"
       style="fill:#1b1817;fill-opacity:1;fill-rule:evenodd;stroke:none;stroke-width:0.352777"
       d="m 108.85661,118.37146 c -3.17323,0 -5.74604,2.57281 -5.74604,5.74675 0,2.53894 1.64641,4.69265 3.92994,5.45288 0.28752,0.0526 0.39229,-0.12488 0.39229,-0.27728 0,-0.13617 -0.005,-0.49777 -0.008,-0.97719 -1.59843,0.34713 -1.93569,-0.77047 -1.93569,-0.77047 -0.26141,-0.66358 -0.63817,-0.84032 -0.63817,-0.84032 -0.52176,-0.35666 0.0395,-0.3496 0.0395,-0.3496 0.57679,0.0409 0.88018,0.59231 0.88018,0.59231 0.51258,0.87807 1.34514,0.62442 1.67252,0.47766 0.0522,-0.37147 0.20037,-0.62477 0.36477,-0.76835 -1.276,-0.14499 -2.61761,-0.63817 -2.61761,-2.84021 0,-0.62724 0.22401,-1.14018 0.59161,-1.54199 -0.0593,-0.14535 -0.25647,-0.72955 0.0561,-1.52083 0,0 0.4826,-0.15451 1.58044,0.58914 0.45826,-0.12735 0.95003,-0.1912 1.43863,-0.19332 0.48789,0.002 0.97966,0.066 1.43863,0.19332 1.09714,-0.74365 1.57868,-0.58914 1.57868,-0.58914 0.31362,0.79128 0.11642,1.37548 0.0572,1.52083 0.3683,0.40181 0.5909,0.91475 0.5909,1.54199 0,2.20768 -1.34373,2.69346 -2.62396,2.83563 0.20638,0.17745 0.39017,0.52811 0.39017,1.06433 0,0.768 -0.007,1.38783 -0.007,1.57621 0,0.15381 0.10337,0.33267 0.39511,0.27658 2.28177,-0.76165 3.92678,-2.91395 3.92678,-5.45218 0,-3.17394 -2.57316,-5.74675 -5.74711,-5.74675" />
  </g>
</svg>
