<?xml version="1.0" encoding="UTF-8" standalone="no"?>
<svg
   xmlns:dc="http://purl.org/dc/elements/1.1/"
   xmlns:cc="http://creativecommons.org/ns#"
   xmlns:rdf="http://www.w3.org/1999/02/22-rdf-syntax-ns#"
   xmlns:svg="http://www.w3.org/2000/svg"
   xmlns="http://www.w3.org/2000/svg"
   xmlns:sodipodi="http://sodipodi.sourceforge.net/DTD/sodipodi-0.dtd"
   xmlns:inkscape="http://www.inkscape.org/namespaces/inkscape"
   width="11.49299mm"
   height="11.209469mm"
   viewBox="0 0 11.49299 11.209469"
   version="1.1"
   id="svg1139"
   inkscape:version="1.0.1 (3bc2e813f5, 2020-09-07)"
   sodipodi:docname="git-mark-light.svg">
  <defs
     id="defs1133" />
  <sodipodi:namedview
     id="base"
     pagecolor="#ffffff"
     bordercolor="#666666"
     borderopacity="1.0"
     inkscape:pageopacity="0.0"
     inkscape:pageshadow="2"
     inkscape:zoom="5.6"
     inkscape:cx="22.38758"
     inkscape:cy="22.502216"
     inkscape:document-units="mm"
     inkscape:current-layer="layer1"
     inkscape:document-rotation="0"
     showgrid="false"
     inkscape:window-width="1566"
     inkscape:window-height="1033"
     inkscape:window-x="128"
     inkscape:window-y="0"
     inkscape:window-maximized="0" />
  <metadata
     id="metadata1136">
    <rdf:RDF>
      <cc:Work
         rdf:about="">
        <dc:format>image/svg+xml</dc:format>
        <dc:type
           rdf:resource="http://purl.org/dc/dcmitype/StillImage" />
        <dc:title></dc:title>
      </cc:Work>
    </rdf:RDF>
  </metadata>
  <g
     inkscape:label="Layer 1"
     inkscape:groupmode="layer"
     id="layer1"
     transform="translate(-146.95581,-126.68693)">
    <path
       id="path198"
       style="fill:#ffffff;fill-opacity:1;fill-rule:evenodd;stroke:none;stroke-width:0.352777"
       d="m 152.70185,126.68693 c -3.17323,0 -5.74604,2.57281 -5.74604,5.74675 0,2.53894 1.64641,4.69265 3.92994,5.45289 0.28752,0.0526 0.39229,-0.12488 0.39229,-0.27728 0,-0.13618 -0.005,-0.49777 -0.008,-0.9772 -1.59844,0.34713 -1.93569,-0.77047 -1.93569,-0.77047 -0.26141,-0.66392 -0.63818,-0.84066 -0.63818,-0.84066 -0.52175,-0.35631 0.0395,-0.34925 0.0395,-0.34925 0.57679,0.0406 0.88018,0.59231 0.88018,0.59231 0.51258,0.87806 1.34514,0.62442 1.67252,0.47731 0.0522,-0.37112 0.20037,-0.62442 0.36477,-0.768 -1.276,-0.14499 -2.61761,-0.63817 -2.61761,-2.84021 0,-0.62724 0.22401,-1.14018 0.5916,-1.54199 -0.0593,-0.14535 -0.25646,-0.72955 0.0561,-1.52083 0,0 0.4826,-0.15452 1.58044,0.58914 0.45826,-0.12771 0.95003,-0.19121 1.43863,-0.19332 0.48789,0.002 0.97966,0.0656 1.43863,0.19332 1.09713,-0.74366 1.57868,-0.58914 1.57868,-0.58914 0.31362,0.79128 0.11641,1.37548 0.0572,1.52083 0.3683,0.40181 0.5909,0.91475 0.5909,1.54199 0,2.20768 -1.34373,2.69345 -2.62396,2.83562 0.20637,0.17745 0.39017,0.52811 0.39017,1.06433 0,0.768 -0.007,1.38783 -0.007,1.57622 0,0.15381 0.10336,0.33267 0.39511,0.27657 2.28177,-0.76164 3.92677,-2.91394 3.92677,-5.45218 0,-3.17394 -2.57316,-5.74675 -5.7471,-5.74675" />
    <path
       id="path1708"
       style="fill:#ffffff;fill-opacity:1;fill-rule:evenodd;stroke:none;stroke-width:0.352777"
       d="m 152.70185,126.68693 c -3.17323,0 -5.74604,2.57281 -5.74604,5.74675 0,2.53894 1.64641,4.69265 3.92994,5.45289 0.28752,0.0526 0.39229,-0.12488 0.39229,-0.27728 0,-0.13618 -0.005,-0.49777 -0.008,-0.9772 -1.59844,0.34713 -1.93569,-0.77047 -1.93569,-0.77047 -0.26141,-0.66392 -0.63818,-0.84066 -0.63818,-0.84066 -0.52175,-0.35631 0.0395,-0.34925 0.0395,-0.34925 0.57679,0.0406 0.88018,0.59231 0.88018,0.59231 0.51258,0.87806 1.34514,0.62442 1.67252,0.47731 0.0522,-0.37112 0.20037,-0.62442 0.36477,-0.768 -1.276,-0.14499 -2.61761,-0.63817 -2.61761,-2.84021 0,-0.62724 0.22401,-1.14018 0.5916,-1.54199 -0.0593,-0.14535 -0.25646,-0.72955 0.0561,-1.52083 0,0 0.4826,-0.15452 1.58044,0.58914 0.45826,-0.12771 0.95003,-0.19121 1.43863,-0.19332 0.48789,0.002 0.97966,0.0656 1.43863,0.19332 1.09713,-0.74366 1.57868,-0.58914 1.57868,-0.58914 0.31362,0.79128 0.11641,1.37548 0.0572,1.52083 0.3683,0.40181 0.5909,0.91475 0.5909,1.54199 0,2.20768 -1.34373,2.69345 -2.62396,2.83562 0.20637,0.17745 0.39017,0.52811 0.39017,1.06433 0,0.768 -0.007,1.38783 -0.007,1.57622 0,0.15381 0.10336,0.33267 0.39511,0.27657 2.28177,-0.76164 3.92677,-2.91394 3.92677,-5.45218 0,-3.17394 -2.57316,-5.74675 -5.7471,-5.74675" />
  </g>
</svg>
